<?xml version="1.0" encoding="utf-8"?>
<!-- Generator: Adobe Illustrator 26.0.1, SVG Export Plug-In . SVG Version: 6.00 Build 0)  -->
<svg version="1.1" id="Layer_1" xmlns="http://www.w3.org/2000/svg" xmlns:xlink="http://www.w3.org/1999/xlink" x="0px" y="0px"
	 viewBox="0 0 234.7 293" style="enable-background:new 0 0 234.7 293;" xml:space="preserve">
<style type="text/css">
	.st0{fill:#C3C38F;}
	.st1{fill:#FAF9C6;}
	.st2{fill:#93B89C;}
	.st3{fill:#6A9D8E;}
	.st4{fill:#5F9084;}
	.st5{fill:#284143;}
	.st6{clip-path:url(#SVGID_00000149362487089456461440000011100837357339645312_);}
	.st7{fill:#4F7673;}
	.st8{fill:#3B5E5E;}
</style>
<g id="Layer_2_00000051350373002368920320000011295050955373202051_">
	<g id="OBJECT">
		<rect x="10.7" y="-3.4" class="st0" width="207.1" height="303.6"/>
		<ellipse class="st1" cx="127.3" cy="69.8" rx="37.3" ry="38.7"/>
		<path class="st2" d="M10.7,87.8c15.9-10.2,29.9-23.2,41.5-38.3c0.7-0.9,1.7-1.7,2.8-2.1l3.4-1.3c1.9-0.8,4-0.5,5.7,0.7l0.1,0.1
			c1.5,1,3.3,1.3,5,0.9l3.9-1c2.1-0.5,4.3,0.1,5.9,1.7c35.4,36.5,89.1,58.5,138.9,60.1v46H10.7V87.8z"/>
		<path class="st3" d="M10.7,87.8c4.6,7.8,10,15.8,17,21.5c7,5.6,16.7,8.5,24.8,4.8c7-3.2,11.8-10.7,19.1-12.9
			c6-1.8,12.6,0.4,17.8,3.9s9.7,8.2,14.7,12.1c5,3.9,10.9,7.2,17.2,6.9c14-0.5,26.9-14.1,40.8-11.9c6.8,1,12.2,6.2,18.5,9.1
			c11.8,5.4,29.4-2.4,37.3-13v59.8H10.7V87.8z"/>
		<path class="st4" d="M10.7,124.4c6-6.7,15.2-12.1,24.1-12.4c8.5-0.2,15.7,6.1,21.6,12.4c5.9,6.3,12.2,13.2,20.5,14.8
			c10.7,2,20.6-5.4,29.3-12.1c8.7-6.7,19.6-13.2,29.8-9.5c12.5,4.6,17.1,22.4,29.8,26.3c8.8,2.7,17.9-2.5,25.5-7.9
			s17.3-11.5,26.5-10.9v91.9H10.7V124.4z"/>
		<path class="st5" d="M154.5,223.6l-8.5-61h2.9v-8.2h-15.8v-6h-0.8v1.1h-2.9v-1.1h-0.8v1.1h-1.3v-6.2h14.6V141
			c3.6-0.7,6.9-2.7,9.4-5.6l0,0c-6,1.4-12.2,1.1-18-0.8h-0.1v-6h-0.8v1.1h-2.9v-1.1h-0.8v1.1h-1.3v-6.2h14.6v-2.3
			c3.6-0.7,6.9-2.7,9.4-5.6l0,0c-6,1.4-12.2,1.1-18-0.8h-0.1v-5.9h-0.8v1h-2.9v-1h-0.8v1h-1.3v-6.2h14.6v-2.3
			c3.6-0.7,6.9-2.7,9.4-5.6l0,0c-6,1.4-12.2,1.1-18-0.8h-0.1v-6h-0.8v1.1h-2.9V89h-0.8v1.1h-1.3v-6.2h14.6v-2.3
			c3.6-0.7,6.9-2.7,9.4-5.6l0,0c-9.6,2.3-19.6,0.1-27.6-5.9l-4.3-3.3h-1.5v-2.2h-1.8l-1.8-39.4l-1.8,39.4h-1.8v2.2h-1.5l-4.3,3.3
			c-7.9,6-18,8.2-27.6,5.9l0,0c2.4,2.9,5.8,4.8,9.4,5.6v2.3h14.6v6.2H100V89h-0.8v1.1h-2.9V89h-0.8v6h-0.1c-5.8,2-12,2.2-18,0.8l0,0
			c2.4,2.9,5.7,4.8,9.4,5.6v2.3h14.6v6.2H100v-1h-0.8v1h-2.9v-1h-0.8v6h-0.1c-5.8,2-12,2.2-18,0.8l0,0c2.5,2.9,5.8,4.8,9.4,5.5v2.3
			h14.6v6.2H100v-1.1h-0.8v1.1h-2.9v-1.1h-0.8v6h-0.1c-5.8,2-12,2.2-18,0.8l0,0c2.4,2.9,5.7,4.9,9.4,5.6v2.3h14.6v6.2H100v-1.1h-0.8
			v1.1h-2.9v-1.1h-0.8v6H79.7v8.2h2.9l-8.5,61L154.5,223.6z M129.4,130.4h2.9v2.2h-2.9V130.4z M129.4,110.6h2.9v2.2h-2.9V110.6z
			 M129.4,90.8h2.9V93h-2.9V90.8z M127.3,90.8h1.3V93h-1.3V90.8z M127.3,110.6h1.3v2.2h-1.3V110.6z M127.3,130.4h1.3v2.2h-1.3V130.4
			z M99.2,93h-2.9v-2.2h2.9V93z M99.2,112.8h-2.9v-2.2h2.9V112.8z M99.2,132.6h-2.9v-2.2h2.9V132.6z M129.4,150.2h2.9v2.1h-2.9
			V150.2z M127.3,150.2h1.3v2.1h-1.3V150.2z M100,93v-2.2h1.3V93H100z M100,112.8v-2.2h1.3v2.2H100z M100,132.6v-2.2h1.3v2.2H100z
			 M100,150.2h1.3v2.1H100V150.2z M96.2,150.2h2.9v2.1h-2.9V150.2z"/>
		<g>
			<defs>
				<rect id="SVGID_1_" x="10.7" width="207.1" height="303.6"/>
			</defs>
			<clipPath id="SVGID_00000103248765707760032890000005255258198370897562_">
				<use xlink:href="#SVGID_1_"  style="overflow:visible;"/>
			</clipPath>
			<g style="clip-path:url(#SVGID_00000103248765707760032890000005255258198370897562_);">
				<polygon class="st7" points="97.7,152.8 82.6,250.7 112.8,250.7 				"/>
				<polygon class="st7" points="162.5,160.3 145.6,269.5 179.3,269.5 				"/>
				<polygon class="st7" points="196.2,150.2 179.3,259.4 213,259.4 				"/>
				<polygon class="st7" points="217.9,144.1 201,253.2 234.7,253.2 				"/>
				<polygon class="st7" points="119.2,166.2 104.2,264.1 134.4,264.1 				"/>
				<polygon class="st7" points="177.6,172.9 162.5,270.8 192.7,270.8 				"/>
				<polygon class="st7" points="140.6,151.3 123.2,264.1 158.1,264.1 				"/>
				<polygon class="st7" points="79.7,150.2 67.1,231.7 92.3,231.7 				"/>
				<polygon class="st7" points="59.5,144.1 46.9,225.6 72.1,225.6 				"/>
				<polygon class="st7" points="45.7,129.3 33.1,210.8 58.3,210.8 				"/>
				<polygon class="st7" points="28.7,142.1 16.1,223.6 41.3,223.6 				"/>
				<polygon class="st7" points="12.6,139 0,220.5 25.2,220.5 				"/>
				<polygon class="st8" points="20.6,154.4 4.4,259.5 36.8,259.5 				"/>
				<polygon class="st8" points="36.8,142.1 23.6,227.6 50,227.6 				"/>
				<polygon class="st8" points="52.2,164.2 39,249.7 65.4,249.7 				"/>
				<polygon class="st8" points="87.4,187.9 74.2,273.4 100.6,273.4 				"/>
				<polygon class="st8" points="128.7,196.2 115.5,281.7 141.9,281.7 				"/>
				<polygon class="st8" points="170.9,217.1 159.2,292.4 182.5,292.4 				"/>
				<polygon class="st8" points="151.1,184.8 134.4,293.5 167.9,293.5 				"/>
				<polygon class="st8" points="187.6,184.8 170.9,293.5 204.4,293.5 				"/>
				<polygon class="st8" points="207.4,170.1 190.6,278.8 224.2,278.8 				"/>
				<polygon class="st8" points="107.8,175.5 92.7,273.4 122.9,273.4 				"/>
				<polygon class="st8" points="68.9,152.8 52.2,261 85.6,261 				"/>
				<path class="st5" d="M215.2,262c-7.1-1.9-14.1,3.5-19.4,8.7c-5.4,5.2-11.5,11.1-18.8,10.7c-6.3-0.4-11.5-5.4-17.7-6.4
					c-9.6-1.6-18.7,6.5-28.4,5.5c-15.5-1.6-22.7-24.7-38.2-25.7c-6.5-0.4-13.6,3.2-19.1-0.3c-6.3-4-5.8-14.3-11.4-19.3
					c-4.6-4.1-11.9-3.2-16.8-6.9c-2.9-2.2-4.6-5.7-7.1-8.4c-6.3-7.1-20.3-10.6-27.6-4.6v88.4h207.1v-41.3L215.2,262z"/>
			</g>
		</g>
	</g>
</g>
</svg>
