<?xml version="1.0" encoding="utf-8"?>
<!-- Generator: Adobe Illustrator 26.0.1, SVG Export Plug-In . SVG Version: 6.00 Build 0)  -->
<svg version="1.1" id="Layer_1" xmlns="http://www.w3.org/2000/svg" xmlns:xlink="http://www.w3.org/1999/xlink" x="0px" y="0px"
	 viewBox="0 0 227.4 315.3" style="enable-background:new 0 0 227.4 315.3;" xml:space="preserve">
<style type="text/css">
	.st0{fill:#93B89C;}
	.st1{fill:#FFFDDE;}
	.st2{fill:#6A9D8E;}
	.st3{fill:#608783;}
	.st4{fill:#4F7673;}
	.st5{fill:#3B5E5E;}
	.st6{clip-path:url(#SVGID_00000093880567149997546990000008671625793642828216_);}
	.st7{fill:#284143;}
</style>
<g id="Layer_2_00000173844281039803937400000017688115477224570281_">
	<g id="OBJECT">
		<rect x="10.6" y="-7.2" class="st0" width="207.1" height="293"/>
		<ellipse class="st1" cx="114.1" cy="141.7" rx="51.2" ry="51.2"/>
		<path class="st2" d="M200.9,175.7c-10.1-1-18.6-7.6-27.3-13c-8.7-5.3-19.2-9.9-28.7-6.2c-6.5,2.4-11.1,8.2-16.3,12.9
			c-5.2,4.7-12.5,8.3-18.9,5.7c-3.2-1.3-5.7-3.9-9-4.7c-5.3-1.1-10.3,3.2-15.7,3.6c-6.8,0.4-12.2-5.3-16.1-10.9s-7.9-11.9-14.3-13.9
			c-4.5-1.4-9.3-0.3-13.9,0.8c-10.5,2.4-19.4,4.2-30.1,0.6v71.3h192.5L200.9,175.7z"/>
		<path class="st3" d="M217.7,143.4c-4.1,5-11,8.3-17,10.7c-2.9,1.1-6.1,2.1-8.3,4.3c-4.3,4.4-3.9,12.9-9.5,15.1
			c-4.6,1.9-9.3-2-14-3.4c-5.3-1.6-11-0.1-16,2.3c-5,2.4-9.6,5.5-14.6,7.6c-5.1,2.1-11.1,3-16,0.7c-8.6-4.1-19.6-1.8-27.8,3
			c-7.2,4.2-12.8,11.3-20.6,14.3c9.5,9.1,22.1,14.5,34.9,17.4s26,3.8,39.2,3.8c21.3,0.3,48.6-0.2,69.8-2.2L217.7,143.4z"/>
		<path class="st4" d="M10.6,157.4c3.8,0,8.1,3.4,10.1,6.6c2.1,3.2,4.1,6.8,7.5,8.3c5.9,2.7,13.5-1.8,19.2,1.4
			c5.5,3,5.9,11.3,10.9,14.9c3.8,2.9,9.1,2.5,13.7,1.4c4.6-1.1,9.3-2.9,14-2.3c10.4,1.4,17,14,27.6,14.5c9.7,0.6,17.6-9.5,27.3-9
			c4.9,0.2,9.4,3.1,14.2,2.6c9.4-1,14.3-13.8,23.7-14.4c5.1-0.3,9.9,3.2,14.9,2.5c5.2-0.8,8.8-5.5,11.5-10.1
			c2.7-4.6,7.5-11,12.5-12.7v98.1H10.6V157.4z"/>
		<path class="st5" d="M217.7,202.9c-4.7-0.2-10.4,2.3-13,6.1c-1.7,2.6-2.5,5.6-4.4,8.2c-2.8,3.8-7.7,5.4-12.3,6.4
			c-0.9,0.3-1.9,0.3-2.9,0c-1.1-0.5-1.7-1.5-2.6-2.3c-4.1-3.7-11.7-0.1-15.3-4.1c-0.8-1-1.4-2.3-1.6-3.6c-1.7-6.8,0-15.1-4.7-20.5
			c-2.2-2.4-5.4-3.8-8.7-3.6c-2.1,0.2-5,0.5-5.5-1.6c-0.2-0.9,0.3-1.9,0-2.8c-0.4-1.6-2.6-1.9-3.9-2.9c-1.8-1.5-1.5-4.2-1.6-6.5
			c-0.1-2.4-1.3-5.7-3.6-5.7H94.4c-3-0.1-5.6,1.8-6.7,4.6c-0.1,0.4-0.2,0.8-0.3,1.2c-0.4,2.8,0.9,6-0.9,8.2s-6.5,2.3-6.9,5.2
			c-0.2,1.2,0.5,2.4,0.1,3.6c-0.6,1.6-2.7,1.7-4.3,2.3c-3,1-4.6,4.3-6,7.1s-3.3,6-6.4,6.7c-1.4,0.2-2.8,0.1-4.1-0.4
			c-3.7-1-7-2.9-9.8-5.3c-1.7-1.6-3.3-3.5-5.6-4.3c-2.1-0.6-4.4-0.4-6.4,0.5c-4.9,1.9-9.4,5.7-14.6,5.5c-4.2-0.2-8.7-3.4-11.9-6
			v74.4h207.1V202.9z"/>
		<path class="st5" d="M141.3,131l-1.2-1.1c0.3-0.4,0.5-0.8,0.5-1.4v-0.8l0,0c-4.6,2.4-9.7,3.7-14.8,3.7h-23.2
			c-5.2,0-10.3-1.2-14.8-3.7l0,0v0.8c0,0.5,0.2,1,0.5,1.4l-1.2,1.1c-0.3,0.3-0.3,0.8,0,1c0.1,0.1,0.2,0.2,0.3,0.2l2,0.8v0.8l2,0.5
			v1.6l2,0.4c2.5,0.5,5.1,0.8,7.7,0.8h0.3v1h0.6l-0.1,3.3h-2.6c-2.1,0-4.2-0.2-6.2-0.7v3.4h8.8l-0.2,11.3h-3l-0.1-3.3h0.2v-0.8h0.7
			l-2.3-1.6l-2.3,1.6h0.7v0.8h0.2l-0.1,3.3h-0.8v1.9h0.8l-0.2,7.8h-0.7v2h0.6l-0.1,4.8h3.5l-0.1-4.8h2.5l-0.1,4.8h4.6l-0.1-4.8h2.5
			l-0.1,4.8h3.5l-0.1-4.8h0.7v-2h-0.7l-0.2-7.8h0.8v-1.9h-0.9L111,152h0.2v-0.8h0.7l-2.3-1.6l-2.3,1.6h0.7v0.8h0.2l-0.1,3.3h-3
			l-0.2-11.3h18l-0.2,11.3h-3l-0.1-3.3h0.2v-0.8h0.7l-2.2-1.5l-2.3,1.6h0.7v0.8h0.2l-0.1,3.3h-0.9v1.9h0.8l-0.2,7.8h-0.7v1.9h0.7
			l-0.1,4.8h3.5l-0.1-4.8h2.5l-0.1,4.8h4.6l-0.1-4.8h2.5l-0.1,4.8h3.5l-0.1-4.8h0.6v-2h-0.7l-0.1-7.8h0.8v-1.9h-0.8l-0.1-3.3h0.2
			v-0.8h0.7l-2.3-1.6l-2.3,1.6h0.7v0.8h0.2l-0.1,3.3h-2.9l-0.2-11.3h8.8v-3.4c-2.1,0.5-4.2,0.7-6.2,0.7h-2.6l-0.1-3.3h0.6v-1h0.3
			c2.6,0,5.1-0.3,7.7-0.8l2-0.4v-1.6l2-0.5V133l2-0.8c0.4-0.1,0.6-0.6,0.4-0.9C141.4,131.2,141.4,131.1,141.3,131z M98.7,164.9
			l-0.1-7.8h2.9l-0.2,7.8H98.7z M108.2,157.2L108,165h-2.5l-0.2-7.8H108.2z M120.2,164.9l-0.2-7.8h2.9l-0.2,7.8H120.2z M129.8,157.2
			l-0.1,7.8H127l-0.2-7.8H129.8z M105.1,141.2L105,138h0.6v-1h6.2l0.5,4.3H105.1z M123.3,138.1l-0.1,3.3H116l0.5-4.3h6.2v1H123.3z"
			/>
		<g>
			<g>
				<g>
					<defs>
						<rect id="SVGID_1_" x="10.6" y="171.5" width="207.1" height="114.2"/>
					</defs>
					<clipPath id="SVGID_00000034780409565859786480000015843420737426972575_">
						<use xlink:href="#SVGID_1_"  style="overflow:visible;"/>
					</clipPath>
					<g style="clip-path:url(#SVGID_00000034780409565859786480000015843420737426972575_);">
						<polygon class="st7" points="16.8,187.9 0,292.7 33.6,292.7 						"/>
						<polygon class="st7" points="33.6,203.2 16.8,308.1 50.3,308.1 						"/>
						<polygon class="st7" points="198.7,203.2 181.9,308.1 215.5,308.1 						"/>
						<polygon class="st7" points="50.3,175.7 31.6,292.7 69.1,292.7 						"/>
						<polygon class="st7" points="63.2,187.9 45.5,298.7 81,298.7 						"/>
						<polygon class="st7" points="185.3,192.1 167.6,303.1 203.1,303.1 						"/>
						<polygon class="st7" points="128.5,196.4 112.1,298.7 144.9,298.7 						"/>
						<polygon class="st7" points="77.6,215.6 63.2,305.2 91.9,305.2 						"/>
						<polygon class="st7" points="167.6,215.6 153.2,305.2 181.9,305.2 						"/>
						<polygon class="st7" points="213,215.6 198.7,305.2 227.4,305.2 						"/>
						<polygon class="st7" points="114.1,215.6 99.8,305.2 128.5,305.2 						"/>
						<polygon class="st7" points="91.9,196.4 74.5,305.2 109.3,305.2 						"/>
						<polygon class="st7" points="104.3,206.3 88.5,305.2 120.1,305.2 						"/>
						<polygon class="st7" points="153.5,201.4 137.6,300.3 169.3,300.3 						"/>
						<polygon class="st7" points="142,206.3 126.2,305.2 157.9,305.2 						"/>
					</g>
				</g>
			</g>
		</g>
	</g>
</g>
</svg>
