<?xml version="1.0" encoding="utf-8"?>
<!-- Generator: Adobe Illustrator 26.0.1, SVG Export Plug-In . SVG Version: 6.00 Build 0)  -->
<svg version="1.1" id="Layer_1" xmlns="http://www.w3.org/2000/svg" xmlns:xlink="http://www.w3.org/1999/xlink" x="0px" y="0px"
	 viewBox="0 0 245.4 305" style="enable-background:new 0 0 245.4 305;" xml:space="preserve">
<style type="text/css">
	.st0{fill:#F4F1C1;}
	.st1{clip-path:url(#SVGID_00000172442547612583530200000005470593717040820912_);}
	.st2{fill:#FFFDDE;}
	.st3{fill:#C9D3B6;}
	.st4{fill:#B9C6A3;}
	.st5{fill:#93B89C;}
	.st6{fill:#6A9D8E;}
	.st7{fill:#608783;}
	.st8{fill:#4F7673;}
	.st9{fill:#3B5E5E;}
	.st10{fill:#284143;}
</style>
<g id="Layer_2_00000096755866186062271710000009385252494928367282_">
	<g id="OBJECT">
		<rect x="23.8" class="st0" width="209" height="305"/>
		<g>
			<defs>
				<rect id="SVGID_1_" x="23.8" y="45.8" width="209" height="259.3"/>
			</defs>
			<clipPath id="SVGID_00000055666529203906048370000012576382027139868591_">
				<use xlink:href="#SVGID_1_"  style="overflow:visible;"/>
			</clipPath>
			<g style="clip-path:url(#SVGID_00000055666529203906048370000012576382027139868591_);">
				<ellipse class="st2" cx="71.7" cy="93.6" rx="39.7" ry="41"/>
				<path class="st3" d="M232.8,121.6c-4.1-0.2-10.9-3.8-14.7-5.4c-1.8-0.8-3.7-1.3-5.5-2c-4.1-1.8-7.4-5.8-11.8-6.7
					c-5.3-1.1-10.4-2.8-15.3-5.1c-3.2-1.5-6.3-3.4-9.8-3.8c-1.8-0.2-3.8-0.1-5.3-1.1c-0.8-0.7-1.6-1.5-2.3-2.3
					c-2.7-2.6-6.8-2.8-10.5-3.5c-13.2-2.6-22.7-14.1-34.2-21.4c-0.8-0.6-1.7-1-2.6-1.2c-0.8-0.1-1.5-0.1-2.3,0c-1,0-2,0.1-3,0.3
					c-5.7,1.3-7.6,8.9-12.6,12.3c-1.2,0.8-2.6,1.4-3.9,2.1C93,87,89.4,93.6,83.2,96c-3,1.2-5,3.9-8.1,4.9c-2.3,0.8-4.7,1.2-6.8,2.4
					c-3,1.7-5,4.9-7.3,7.5c-2.5,3-5.7,5.3-9.3,6.7c-4,1.5-8.5,1.3-12.7,2.2c-3.8,0.8-11.9,4.8-15,7.2V169h208.7V121.6z"/>
				<path class="st4" d="M55.9,133.3c5-3.6,10.2-7.2,16-9.2c5.8-2,12.5-2.2,17.8,0.9c1.7,1,3.3,2.4,5.3,3c2,0.5,4.1,0.6,6.2,0.2
					c5-0.5,10.4-1.1,14.6-4.1c4.8-3.3,7.7-9.4,13-11.6c11.3-4.7,22.8,10.7,34.7,7.9c8.1-1.9,13.6-11.9,21.9-11.5
					c3.2,0.2,6.3,2,9.4,1.3c3.4-0.7,5.8-4,9.1-5.1c4.7-1.6,9.7,1.7,13.1,5.4c3.4,3.7,6.4,8.3,11,10.3v53.8H55.9V133.3z"/>
				<path class="st5" d="M82.3,142.1c2.8-3.2,8.1-1.4,11.4,1.2c3.4,2.6,7.2,5.8,11.3,4.7c1.7-0.5,3.2-1.7,5-1.9
					c4.3-0.4,6.5,5.2,10,7.9c6.8,5.3,16.8-1.4,25,1c1.6,0.5,3.2,1.4,4.9,1.4c5.4,0.1,8.6-7.6,14-7.3c1.7,0.1,3.2,1,4.8,1.4
					c5.9,1.6,11.5-3.3,15.4-8.1c3.9-4.8,8-10.5,14-11.4c2.2-0.3,4.5,0.1,6.7-0.3c9.6-1.7,14-16.8,23.8-16.2c1.5,0.2,2.9,0.6,4.1,1.4
					v81.8H79.5L82.3,142.1z"/>
				<path class="st6" d="M232.8,163.2c-2.5,1.2-6,2-7.5-0.4c-6.3-9.4-19.4-13.2-29.6-8.6c-12.1,5.5-20.6,21.4-33.7,19.4
					c-13.3-2-19.7-21.9-33.2-21.9c-8.3,0-15.4,8-23.7,7.3c-10.3-1-14.4-13.9-21.8-21.3c-10-10.1-22.9-6.2-35.2-9.7
					c-10.7-3.1-14.1-13.8-24-16.9v124.2h208.7V163.2z"/>
				<polygon class="st7" points="216.8,147.3 233.7,256.5 199.9,256.5 				"/>
				<polygon class="st7" points="228.6,156.8 245.6,266 211.7,266 				"/>
				<polygon class="st7" points="74,162.2 95.1,298.5 52.9,298.5 				"/>
				<polygon class="st7" points="87.4,175.7 102.7,274.5 72.1,274.5 				"/>
				<polygon class="st7" points="97.1,165.8 114.4,276.9 79.9,276.9 				"/>
				<polygon class="st7" points="120.4,177 134.2,265.7 106.7,265.7 				"/>
				<polygon class="st7" points="134.2,168.7 150.7,275 117.7,275 				"/>
				<polygon class="st7" points="149.6,160.2 169.2,286.2 130.1,286.2 				"/>
				<polygon class="st7" points="167.2,150.2 188.3,286.2 146.1,286.2 				"/>
				<polygon class="st7" points="181.7,164 200.7,286.2 162.8,286.2 				"/>
				<polygon class="st7" points="198.9,154.1 219.1,284.1 178.8,284.1 				"/>
				<polygon class="st8" points="82.6,182.3 99.6,291.5 65.7,291.5 				"/>
				<polygon class="st8" points="104.8,155.2 125.9,291.5 83.6,291.5 				"/>
				<polygon class="st8" points="125.9,192.7 141.2,291.5 110.6,291.5 				"/>
				<polygon class="st8" points="141.9,180.3 159.1,291.5 124.7,291.5 				"/>
				<polygon class="st8" points="159.1,202.9 172.9,291.5 145.4,291.5 				"/>
				<polygon class="st8" points="170.5,185.3 186.9,291.5 154,291.5 				"/>
				<polygon class="st8" points="190,165.5 209.6,291.5 170.5,291.5 				"/>
				<polygon class="st8" points="207.5,155.5 228.6,291.5 186.4,291.5 				"/>
				<polygon class="st8" points="215.2,169.2 234.2,291.5 196.2,291.5 				"/>
				<polygon class="st8" points="224.2,161.4 244.3,291.5 204,291.5 				"/>
				<polygon class="st9" points="222,208.4 205.1,317.6 238.9,317.6 				"/>
				<polygon class="st9" points="199.9,181.3 178.8,317.6 221,317.6 				"/>
				<polygon class="st9" points="178.8,218.8 163.4,317.6 194.1,317.6 				"/>
				<polygon class="st9" points="162.8,206.4 145.5,317.6 180,317.6 				"/>
				<polygon class="st9" points="145.5,229 131.8,317.6 159.3,317.6 				"/>
				<polygon class="st9" points="134.2,211.4 117.7,317.6 150.7,317.6 				"/>
				<polygon class="st9" points="114.6,191.6 95.1,317.6 134.2,317.6 				"/>
				<polygon class="st9" points="97.1,181.6 76,317.6 118.2,317.6 				"/>
				<polygon class="st9" points="89.5,195.3 70.5,317.6 108.4,317.6 				"/>
				<polygon class="st9" points="80.5,187.5 60.3,317.6 100.7,317.6 				"/>
				<path class="st10" d="M73,147.5h-0.9v-20.6h10.8v-3c4.8-1,9.1-3.5,12.3-7.3c-12.6,3-25.9,0.2-36.3-7.7l-5.7-4.3h-2v-2.9H49
					c-0.5-1.4-2-2.1-3.3-1.6c-0.7,0.3-1.2,0.8-1.5,1.6h-2.3v2.9h-2c-10.3,7.9-22.8,12.1-35.6,12.1h-6.4c3.2,3.8,7.6,6.3,12.3,7.3v3
					h11.7v20.6h-9.3c-2.8,0.4-5.5,0.6-8.3,0.6h-6.4c3.2,3.8,7.6,6.3,12.3,7.3v3h8.3v20.7h-9v8.7h8.3l-4,22.5h65.6l-4-22.5h8.3v-8.7
					h-8.1v-20.6h7.4v-3c4.8-1,9.1-3.5,12.3-7.3C87.9,149.9,80.2,149.7,73,147.5z M63.7,126.9h4.2v20.6h-11v-20.6H63.7z M40.8,179.1
					v-20.6h12.5v20.6H40.8z M52.5,127v20.6h-11v-20.6L52.5,127z M26.2,127h11v20.6h-11L26.2,127z M23.4,158.4h12.5v20.6H23.4V158.4z
					 M70.6,179.1H58.1v-20.6h12.5V179.1z"/>
				<path class="st10" d="M23.8,305.1V193.9l36.8,11.2c1.1,0.3,2.3,0.5,3.5,0.3l27.7-2.8c0.9-0.1,1.9,0,2.8,0.2l11.5,2.5
					c0.9,0.2,1.9,0.3,2.8,0.2l0,0c4.5-0.5,8.7,2.5,9.8,7.1l1.5,6.3c0.8,3.5-0.3,7.2-3,9.5l-2.8,2.5c-1.6,1.4-2.6,3.2-3,5.3
					l-2.6,13.1c-0.4,1.9-1.3,3.6-2.7,4.9l-11.3,11c-1,1-1.8,2.2-2.3,3.5l-5.1,13.8c-0.6,1.8-0.8,3.7-0.4,5.5l3.8,17.1H23.8z"/>
				<path class="st10" d="M150.7,305.1h82.1v-54.8c-2.7,3.1-6.3,5.5-9.1,8.6c-2.4,2.7-4.9,5.6-8.3,6.7c-3.4,1.2-7.4,0.4-10.8,1.9
					c-7.2,3.1-7.9,14.1-14.3,18.7c-4.6,3.3-10.8,2.3-16.4,2.8C164.4,289.7,156,296.8,150.7,305.1z"/>
				<path class="st10" d="M224.4,226.5c-0.4-0.6-0.9-1.2-1.5-1.6c-0.7-0.3-1.5-0.4-2.3-0.3c-1.2,0.1-2.3,0.2-3.5,0.3
					c-0.4,0-0.7,0.1-1,0.3c-0.5,0.3-0.8,0.8-1,1.3c-1,2-2,4-2.9,6c-0.2,0.6-0.6,1.1-1,1.5c-0.9,0.7-2.1,1-3.2,0.7
					c-1.1-0.3-2.2-0.5-3.3-0.6c-3.1,0-5.5,2.6-5.5,5.8c0,0.9,0.3,2-0.3,2.8c-0.4,0.4-0.9,0.7-1.4,0.9l-4.8,1.7
					c-0.5,0.2-1,0.3-1.6,0.4c-1.8,0-3.2-1.6-3.2-3.4c0-0.4,0.1-0.7,0.2-1c-1.9-1-4.3,0.4-6.4,0.1c-0.8-0.2-1.5-0.4-2.2-0.8
					c-1.5-0.7-3.6-1.1-4.7,0.2c-0.4,0.5-0.6,1-0.8,1.6c-0.5,1.6-0.9,3.2-1.2,4.8c1.7,0.7,3.2,1.7,4.5,3c1.3,1.3,1.8,3.3,1.2,5.1
					l-8.6-0.7c-0.3,0-0.6,0-0.9,0.1c-0.3,0.2-0.5,0.5-0.7,0.8c-0.6,1.2-1.3,2.4-1.9,3.6c-1.9,3.6-6.5,4.8-10.5,4.3
					c-0.6,0-1-0.4-1.1-1c0-0.1,0-0.1,0-0.2l-0.8-3.8c-0.1-0.4-0.2-0.7-0.4-1c-0.2-0.2-0.4-0.4-0.6-0.5c-3.2-1.6-7.6,0.8-10.2-1.6
					c-0.2-0.2-0.4-0.3-0.6-0.4c-1-0.4-1.8,1.4-2.8,1.2c0.4,0.1,1,0.3,1.4,0.1c0.1-0.1,0.3-0.2,0.4-0.3c0.4-0.2,0.8,0,1.1,0.3
					c0.3,0.3,0.5,0.7,0.8,0.9c0.7,0.5,1.6,0.7,2.5,0.6h2.5c0.8-0.1,1.7,0,2.5,0.2c0.8,0.2,1.5,0.8,1.9,1.5c0.2,0.6,0.4,1.3,0.4,2
					c0.1,1.3,0.6,2.6,1.3,3.6c0.6,0.6,1.4,1,2.3,1c0.9,0.1,1.7,0,2.6-0.2l3.4-0.6c0.9-0.1,1.9-0.4,2.7-0.7c1.6-0.9,2.9-2.3,3.6-4.1
					c0.2-0.6,0.6-1.2,1-1.7c1-1,2.5-0.8,3.8-0.7l6.1,0.8c0.5,0.1,1,0.1,1.5-0.1c0.4-0.4,0.7-0.9,0.8-1.5c0.3-1.3,0.5-2.7,0.6-4.1
					c0.1-0.6,0.1-1.3-0.1-1.9c-0.5-1.9-2.6-2.8-4.3-3.8c-0.6-0.3-1.1-0.8-1.4-1.4c-0.3-0.6,0-1.4,0.6-1.7c0.2-0.1,0.4-0.1,0.6-0.1
					h2.8c0.9-0.1,1.8,0.2,2.5,0.8c0.3,0.6,0.6,1.3,0.7,2c0.4,0.9,1,1.8,1.8,2.4c0.6,0.6,1.3,1.1,2.1,1.3c1.1,0.2,2.2,0,3.2-0.4
					l5.8-1.9c0.5,1,1.3,1.7,2.3,2.2c0.8,0.2,1.6,0.4,2.4,0.7c1.2,0.7,1.7,2.7,3.1,2.9c0.3,0,0.5,0,0.8,0.1c0.2,0.1,0.5,0.4,0.4,0.6
					c-1.1,0.6-2.4,0.9-3.7,0.9c-0.2,0-0.3,0-0.5,0.1c-0.1,0.1-0.2,0.2-0.3,0.4l-1.5,3.3c-0.1,0.2-0.2,0.4-0.2,0.6
					c0,0.2,0.1,0.4,0.3,0.6c0.9,1,2.3,1.5,3.4,2.3c1.2,1,2.3,2.2,3.2,3.6c0.2,0.3,0.5,0.6,0.8,0.8c0.4,0.2,0.9,0.3,1.4,0.2
					c1-0.2,2-0.5,2.8-1c1-0.5,2.1-0.9,3.1-1.2c0.9-0.3,1.9-0.4,2.8-0.3c1,0.1,1.8,0.7,2.3,1.5c0.4,0.7,0.5,1.7,1.2,1.9
					c0.3,0.1,0.5,0.1,0.8,0.1l1.9-0.1c0.8-0.1,1.6,0,2.3,0.1c0.8,0.1,1.5,0.6,1.9,1.2c-0.3-1.2-1.2-2-2.4-2.2c-1-0.1-2.1,0.2-3.1,0
					c-0.2,0-0.5-0.1-0.7-0.2c-0.3-0.3-0.5-0.6-0.6-1c-0.2-0.6-0.4-1.1-0.7-1.7c-0.2-0.3-0.4-0.6-0.7-0.9c-0.6-0.4-1.4-0.6-2.1-0.4
					c-1.9,0-3.7,0.2-5.5,0.5c-1.1,0.4-2.4,0.5-3.6,0.3c-1-0.5-1.9-1.2-2.5-2.2c-0.7-0.9-1.8-1.5-2.9-1.7c0.2-0.6,0.3-1.1,0.6-1.6
					c0.1-0.2,0.2-0.4,0.4-0.6c0.3-0.2,0.7-0.3,1-0.2c1.7,0,3.4-0.2,5-0.7c0.3-0.1,0.7-0.2,0.8-0.6c0-0.2,0-0.3,0-0.5
					c-0.1-1-0.2-2.4-1.1-2.9c-0.6-0.2-1.1-0.4-1.7-0.5c-0.9-0.3-1.5-1-1.8-1.9c0-0.2-0.1-0.4-0.2-0.6c-0.3-0.3-0.7-0.3-1.2-0.4
					c-1-0.2-1.9-0.8-2.4-1.7c-0.3-0.4-0.5-0.9-0.7-1.3c0.7-0.5,1.3-1.2,1.6-2c0.3-1.1,0.2-2.4,1-3.2c0.8-0.7,2-0.4,3-0.1
					c1.4,0.6,2.8,1,4.3,1.2c1.5,0.2,2.9-0.3,4-1.3c1.5-1.6,1.5-4.6,3.4-5.7c1.1-0.5,2.3-0.5,3.3-0.1c1.9,0.6,3.5,1.8,4.7,3.3
					c0.3,0.3,0.4,0.7,0.4,1c0,0.3-0.2,0.6-0.3,0.8c-1.4,2-3.8,3.1-5.6,4.7c-0.3,0.3-0.6,0.6-0.7,1c-0.2,0.8,0.6,1.6,0.7,2.4
					c0,0.4,0,0.9,0,1.3c0,0.5,0.2,0.9,0.6,1.1c0.2,0,0.4,0.1,0.6,0.2c0.3,0.2,0.3,0.6,0.2,1c-0.3,0.8-0.7,1.6-1.1,2.3
					c-0.4,0.8-0.5,1.7-0.1,2.5c0.7,0.9,1.9,1.2,2.9,0.6c0.9-0.6,1.7-1.4,2.3-2.4c0.6-1,1.4-1.7,2.4-2.2c1-0.4,2.5,0.3,3.4,1v-20.4
					C229.5,232.2,226.6,229.6,224.4,226.5z"/>
			</g>
		</g>
	</g>
</g>
</svg>
